<svg viewBox="0 0 30 30" xml:space="preserve" xmlns="http://www.w3.org/2000/svg" enable-background="new 0 0 30 30" id="my_image"><path d="M6 7h18M7 3h16" fill="none" stroke="#ffffff" stroke-width="2" stroke-linecap="round" stroke-miterlimit="10" class="stroke-000000" ></path><path d="M24 10H6a2 2 0 0 0-2 2v14a2 2 0 0 0 2 2h18a2 2 0 0 0 2-2V12a2 2 0 0 0-2-2zm-5 5.77a.312.312 0 0 1-.25.305l-3.75.823v5.279C15 23.662 14.493 25 12.733 25c-1.432 0-2.233-.791-2.233-2 0-2.918 3.5-1.753 3.5-3v-6l4.643-.994a.298.298 0 0 1 .357.293v2.471z" fill="#ffffff" class="fill-000000"></path></svg>